<?xml version="1.0" encoding="UTF-8"?>
<svg id="Camada_2" data-name="Camada 2" xmlns="http://www.w3.org/2000/svg" viewBox="0 0 492 492">
  <defs>
    <style>
      .cls-1 {
        fill: none;
        stroke: #fff;
        stroke-linejoin: round;
        stroke-width: 9.48px;
      }

      .cls-2 {
        fill: #fff;
        stroke-width: 0px;
      }
    </style>
  </defs>
  <g id="Saideira">
    <path class="cls-2" d="M373.17,184.29c-5.31,2.08-10.39-5.57-8.38-11.22s7.96-8.45,13.53-9.36c17.55-2.81,35.37,8.42,44.77,24.45s11.45,35.9,9.59,54.66c-2.65,26.84-12.93,52.8-29.11,73.58-6.63,8.53-14.52,16.34-24.15,20.51-3.56,1.55-7.51,2.54-11.26,1.78s-7.35-3.68-8.19-7.7c-1.36-6.75,4.97-12.13,10.2-16.22,27.37-21.49,43.97-57.66,43.06-93.78-.3-11.64-2.65-23.96-10.27-32.33s-20.51-8.04-29.8-4.36Z"/>
    <path class="cls-2" d="M291.32,214.39h44.69c4.62,3.37,8.83,4.47,11.79,7.58,3.87,4.13,3.79,12.4,3.68,17.59-.87,40.75-1.78,81.46-2.65,122.21-.42,19.26-1.44,40.26-13.46,54.66-7.28,8.76-17.85,13.84-28.62,16.26-10.77,2.43-21.87,2.35-32.87,2.27-35.41-.19-70.81-.42-106.25-.61-18.84-.11-39.61-1.02-53.3-14.75-14.71-14.78-15.81-38.85-15.92-60.39-.19-39.92-.38-79.79-.61-119.71-.04-7.35,1.4-10.77,6.52-15.73,6.1-5.91,11.33-5.53,17.59-5.61h119.26c-2.01,9.29.83,19.94,7.35,26.99,6.48,7.05,16.41,10.35,25.55,8.45,4.06-.83,8.04-2.73,10.88-5.95,5.8-6.56,6.37-20.32,6.37-33.28Z"/>
    <path class="cls-1" d="M369.22,120.95c-3.18,8.83-9.51,16.57-17.44,21.49-4.93,3.07-10.5,5.08-16.34,5.57-13.23,1.1-26.95-6.37-32.9-18.01-.91-1.74-1.59-3.56-2.12-5.46-1.48,1.93-3.07,3.75-4.78,5.46-6.1,6.07-13.57,10.35-21.53,11.07-.49,19.9,1.82,39.46,7.01,58.11.99,3.53,2.08,7.05,3.3,10.5,2.69,7.77,5.95,15.73,5.08,23.92-1.1,9.74-8.64,18.42-18.12,21.04s-20.28-.87-26.65-8.34c-6.37-7.47-8.07-18.54-4.51-27.71,2.01-5.19,5.53-9.67,8.15-14.59.83-1.59,1.55-3.18,2.16-4.81,6.97-17.44,3.6-37.79.04-56.6-6.86-2.2-13.57-6.67-18.73-12.59-2.2-2.5-4.13-5.27-5.65-8.26-1.14,2.96-2.69,5.72-4.55,8.26-7.01,9.74-18.61,16.07-30.48,15.96-11.68-.11-22.97-6.44-29.61-15.96-1.93-2.65-3.45-5.61-4.51-8.72-.76,3.15-2.01,6.07-3.71,8.72-6.6,10.46-19.56,16.83-31.92,15.54-8.87-.95-17.02-5.31-23.31-11.64-4.7-4.74-8.38-10.58-10.54-16.91-4.36-12.81-2.54-28.28,6.86-38.02,7.85-8.19,20.05-11.37,31.31-9.97,11.26,1.44,21.68,6.97,30.59,14.03,5.27-14.82,21.68-26.27,38.59-26.04,16.87.19,33.02,12.05,38.25,28.13,8.79-10.12,20.32-16.3,31.73-15.62,11.37.68,22.1,8.19,26.61,18.65,6.41-11.86,17.7-20.7,30.48-23.27,12.77-2.62,26.72,1.14,36.35,9.93,12.36,11.3,16.57,30.36,10.88,46.13Z"/>
    <path class="cls-2" d="M249.67,199.23H104.65c-3.1,0-5.61-2.51-5.61-5.61v-57.09c0-.6.07-1.16.3-1.68,6.21,6.24,14.24,10.54,22.99,11.48,12.19,1.27,24.97-5.01,31.48-15.33h8.11c6.54,9.38,17.68,15.63,29.2,15.74,11.7.11,23.14-6.13,30.06-15.74h10.06c5.08,5.83,11.7,10.24,18.47,12.41,3.51,18.54,6.84,38.62-.04,55.82Z"/>
    <path class="cls-2" d="M353.01,143.26v50.36c0,3.1-2.51,5.61-5.61,5.61h-64.08c-5.12-18.39-7.4-37.69-6.92-57.32,7.85-.71,15.22-4.94,21.24-10.92h6.8c5.87,11.48,19.4,18.84,32.45,17.76,5.76-.49,11.25-2.47,16.11-5.5Z"/>
  </g>
</svg>