<svg width="103" height="70" viewBox="0 0 103 70" fill="none" xmlns="http://www.w3.org/2000/svg">
<mask id="mask0_1_4" style="mask-type:luminance" maskUnits="userSpaceOnUse" x="0" y="30" width="103" height="28">
<path d="M0 30.8037H103V57.4361H0V30.8037Z" fill="white"/>
</mask>
<g mask="url(#mask0_1_4)">
<mask id="mask1_1_4" style="mask-type:luminance" maskUnits="userSpaceOnUse" x="-2" y="30" width="107" height="28">
<path d="M-1.46022 39.5713L103.039 30.8463L104.504 48.4003L0.00501251 57.1252L-1.46022 39.5713Z" fill="white"/>
</mask>
<g mask="url(#mask1_1_4)">
<mask id="mask2_1_4" style="mask-type:luminance" maskUnits="userSpaceOnUse" x="0" y="30" width="103" height="28">
<path d="M1.55552 39.3192L102.995 30.8499L101.446 48.6558L0.00505447 57.1251L1.55552 39.3192Z" fill="white"/>
</mask>
<g mask="url(#mask2_1_4)">
<path d="M-1.4603 39.5712L102.97 30.8525L104.435 48.4052L0.00493455 57.1251L-1.4603 39.5712Z" fill="#001247"/>
</g>
</g>
</g>
<mask id="mask3_1_4" style="mask-type:luminance" maskUnits="userSpaceOnUse" x="27" y="49" width="49" height="21">
<path d="M27.595 49.7352H75.4049V69.6292H27.595V49.7352Z" fill="white"/>
</mask>
<g mask="url(#mask3_1_4)">
<mask id="mask4_1_4" style="mask-type:luminance" maskUnits="userSpaceOnUse" x="26" y="49" width="51" height="21">
<path d="M26.428 54.0081L75.3034 49.9282L76.5819 65.2423L27.7065 69.3234L26.428 54.0081Z" fill="white"/>
</mask>
<g mask="url(#mask4_1_4)">
<mask id="mask5_1_4" style="mask-type:luminance" maskUnits="userSpaceOnUse" x="27" y="49" width="49" height="21">
<path d="M28.164 53.8639L75.2934 49.9282L74.8359 65.3877L27.7065 69.3234L28.164 53.8639Z" fill="white"/>
</mask>
<g mask="url(#mask5_1_4)">
<path d="M26.428 54.008L75.3034 49.9282L76.5819 65.2423L27.7065 69.3234L26.428 54.008Z" fill="#001247"/>
</g>
</g>
</g>
<mask id="mask6_1_4" style="mask-type:luminance" maskUnits="userSpaceOnUse" x="13" y="0" width="71" height="62">
<path d="M13.1558 1.52588e-05H83.4268V61.2866H13.1558V1.52588e-05Z" fill="white"/>
</mask>
<g mask="url(#mask6_1_4)">
<mask id="mask7_1_4" style="mask-type:luminance" maskUnits="userSpaceOnUse" x="12" y="0" width="76" height="64">
<path d="M87.6232 58.2672L17.4562 63.7045L12.9515 5.5727L83.1185 0.135422L87.6232 58.2672Z" fill="white"/>
</mask>
<g mask="url(#mask7_1_4)">
<mask id="mask8_1_4" style="mask-type:luminance" maskUnits="userSpaceOnUse" x="13" y="0" width="71" height="61">
<path d="M52.6218 60.9795L13.1157 5.55888L83.1185 0.135391L52.6218 60.9795Z" fill="white"/>
</mask>
<g mask="url(#mask8_1_4)">
<path d="M87.6234 58.2671L17.6832 63.6869L13.1785 5.55509L83.1186 0.135361L87.6234 58.2671Z" fill="#001247"/>
</g>
</g>
</g>
<mask id="mask9_1_4" style="mask-type:luminance" maskUnits="userSpaceOnUse" x="50" y="25" width="18" height="13">
<path d="M50.3769 25.9907H67.3832V37.5421H50.3769V25.9907Z" fill="white"/>
</mask>
<g mask="url(#mask9_1_4)">
<mask id="mask10_1_4" style="mask-type:luminance" maskUnits="userSpaceOnUse" x="18" y="2" width="63" height="36">
<path d="M18.3486 7.74855L78.2966 2.66473L80.8184 32.3993L20.8705 37.4831L18.3486 7.74855Z" fill="white"/>
</mask>
<g mask="url(#mask10_1_4)">
<mask id="mask11_1_4" style="mask-type:luminance" maskUnits="userSpaceOnUse" x="18" y="2" width="65" height="58">
<path d="M18.3486 7.74855L78.2966 2.66473L82.6898 54.4593L22.7418 59.5444L18.3486 7.74855Z" fill="white"/>
</mask>
<g mask="url(#mask11_1_4)">
<path d="M55.5322 46.4638C54.0206 40.574 54.5157 35.3222 57.0062 30.7084C51.243 36.2748 50.4872 46.554 50.689 54.1948L52.6807 57.0651L67.2277 26.0909L64.8788 26.5559L55.5322 46.4638Z" fill="#ECC200"/>
</g>
</g>
</g>
<mask id="mask12_1_4" style="mask-type:luminance" maskUnits="userSpaceOnUse" x="18" y="2" width="61" height="35">
<path d="M18.2897 2.56699H78.2928V36.9003H18.2897V2.56699Z" fill="white"/>
</mask>
<g mask="url(#mask12_1_4)">
<mask id="mask13_1_4" style="mask-type:luminance" maskUnits="userSpaceOnUse" x="18" y="2" width="63" height="36">
<path d="M18.3487 7.74878L78.2967 2.66496L80.8185 32.3995L20.8705 37.4834L18.3487 7.74878Z" fill="white"/>
</mask>
<g mask="url(#mask13_1_4)">
<mask id="mask14_1_4" style="mask-type:luminance" maskUnits="userSpaceOnUse" x="18" y="2" width="65" height="58">
<path d="M18.3487 7.74878L78.2966 2.66496L82.6898 54.4595L22.7419 59.5446L18.3487 7.74878Z" fill="white"/>
</mask>
<g mask="url(#mask14_1_4)">
<path d="M70.5881 17.9427C70.0554 17.9164 69.5101 17.89 68.9536 17.865C66.522 17.7697 63.7821 17.7484 60.7112 17.8036L57.4185 15.5261C55.4331 14.1511 55.843 14.1524 53.3875 14.3492L47.7572 14.8016L37.4643 10.8873C36.9529 10.6892 36.0191 10.4799 35.7483 11.1292L38.3066 17.6907L42.1808 20.0033L37.7701 18.9053L30.9328 22.4637L21.8405 9.40197L75.0414 4.8897L69.4224 16.8485L71.6171 16.7106L78.2188 2.67869L18.3485 7.75749L38.5773 36.8065C40.0814 33.6404 42.3375 31.0972 45.2467 29.1256L39.0022 29.5831C47.6306 24.5331 59.7097 23.6169 69.574 23.7572L71.5782 19.3791C72.1084 18.2247 71.9693 18.0191 70.5881 17.9427ZM53.8162 18.2686L52.0088 16.9989C55.5409 16.6993 55.3993 16.3133 58.7446 17.7898L53.8162 18.2686Z" fill="#ECC200"/>
</g>
</g>
</g>
<mask id="mask15_1_4" style="mask-type:luminance" maskUnits="userSpaceOnUse" x="42" y="24" width="27" height="14">
<path d="M42.9969 24.3863H68.0249V37.5421H42.9969V24.3863Z" fill="white"/>
</mask>
<g mask="url(#mask15_1_4)">
<mask id="mask16_1_4" style="mask-type:luminance" maskUnits="userSpaceOnUse" x="18" y="2" width="63" height="36">
<path d="M18.3486 7.74854L78.2966 2.66472L80.8184 32.3993L20.8705 37.4831L18.3486 7.74854Z" fill="white"/>
</mask>
<g mask="url(#mask16_1_4)">
<mask id="mask17_1_4" style="mask-type:luminance" maskUnits="userSpaceOnUse" x="18" y="2" width="65" height="58">
<path d="M18.3486 7.74854L78.2966 2.66472L82.6898 54.4593L22.7418 59.5443L18.3486 7.74854Z" fill="white"/>
</mask>
<g mask="url(#mask17_1_4)">
<path d="M43.1912 43.4343L48.1208 50.5047C49.0571 37.799 53.8213 26.5772 67.8921 24.6833C55.3993 25.4053 46.7007 31.2085 43.1912 43.4343Z" fill="#ECC200"/>
</g>
</g>
</g>
<path d="M10.3602 54.6949C9.06292 54.8027 7.89349 54.6686 6.85066 54.2938C5.81033 53.9203 4.97807 53.3199 4.35387 52.4939C3.72842 51.6692 3.36744 50.6689 3.27093 49.4958C3.2233 48.8979 3.24335 48.2875 3.33109 47.6658C3.63191 45.2329 4.56068 43.2839 6.11867 41.8199C7.67916 40.3534 9.75355 39.5136 12.3406 39.303C13.406 39.2166 14.3373 39.2316 15.1332 39.3482C15.9278 39.4622 16.6473 39.6941 17.289 40.0451L16.6673 44.7779C16.1259 44.3768 15.4916 44.1099 14.7672 43.9758C14.0452 43.8391 13.1854 43.8103 12.1902 43.8905C11.1097 43.9808 10.2273 44.3154 9.54298 44.8932C8.86112 45.4686 8.45753 46.2557 8.33469 47.2547C8.27704 47.6094 8.26074 47.9365 8.28456 48.2373C8.34096 48.933 8.62172 49.4306 9.12685 49.7314C9.63072 50.0322 10.3878 50.1413 11.398 50.0573C12.3669 49.9771 13.2506 49.7966 14.0502 49.5158C14.8524 49.2325 15.6295 48.8377 16.3816 48.3326L15.7799 53.0404C14.2558 53.9729 12.4484 54.5244 10.3602 54.6949Z" fill="white"/>
<path d="M17.9277 39.1551L28.682 38.2727L28.1455 42.4791L22.3096 42.9554L22.1492 44.2389L26.2804 43.903L25.7941 47.6883L21.6629 48.0242L21.4924 49.3127L27.3233 48.8314L26.7968 53.0378L16.0426 53.9152L17.9277 39.1551Z" fill="white"/>
<path d="M29.0534 38.2432L36.0324 37.6716C37.5365 37.5488 38.7523 37.8107 39.6823 38.4588C40.6149 39.1043 41.1325 40.0506 41.2366 41.2965C41.2691 41.7276 41.2541 42.1475 41.1914 42.5549C41.0435 43.6554 40.7064 44.6055 40.1787 45.4076C39.6535 46.2098 38.9729 46.8616 38.1381 47.363L39.8127 51.9705L34.8492 52.3766L33.4454 48.5061L32.5078 48.5813L32.0065 52.6072L27.1683 53.0033L29.0534 38.2432ZM34.0971 44.7458C35.3568 44.6431 36.055 44.0489 36.1928 42.966C36.2192 42.7993 36.2279 42.6476 36.2179 42.5098C36.154 41.7477 35.5824 41.4105 34.5032 41.497L33.4002 41.5873L32.9992 44.8361L34.0971 44.7458Z" fill="white"/>
<path d="M42.2549 37.1612L49.2338 36.5896C50.7379 36.4668 51.9537 36.7288 52.8838 37.3768C53.8163 38.0223 54.3339 38.9686 54.438 40.2145C54.4706 40.6457 54.4555 41.0656 54.3929 41.4729C54.245 42.5734 53.9078 43.5235 53.3801 44.3257C52.8549 45.1278 52.1743 45.7796 51.3396 46.281L53.0141 50.8885L48.0506 51.2946L46.6468 47.4241L45.7093 47.4993L45.2079 51.5252L40.3697 51.9213L42.2549 37.1612ZM47.2986 43.6639C48.5582 43.5611 49.2564 42.967 49.3943 41.884C49.4206 41.7173 49.4294 41.5657 49.4193 41.4278C49.3554 40.6657 48.7839 40.3286 47.7047 40.415L46.6017 40.5053L46.2006 43.7541L47.2986 43.6639Z" fill="white"/>
<path d="M60.856 35.6378L65.4986 35.2568L69.4343 49.5406L64.4908 49.9467L63.8691 47.45L59.5524 47.8009L58.304 50.4531L53.16 50.8743L60.856 35.6378ZM63.2625 43.8602L62.6358 40.5512L61.1066 44.0357L63.2625 43.8602Z" fill="white"/>
<path d="M71.6882 34.7486L77.0879 34.3074C78.4541 34.1946 79.6724 34.335 80.7428 34.7286C81.812 35.1234 82.6631 35.73 83.2948 36.5485C83.929 37.3645 84.2925 38.3409 84.3827 39.4765C84.4253 39.9716 84.4153 40.4617 84.3526 40.9455C84.0581 43.4322 83.1506 45.3512 81.6302 46.7011C80.1124 48.0523 78.0254 48.8369 75.3682 49.0575L69.8031 49.5088L71.6882 34.7486ZM76.2807 44.3798C77.2195 44.3034 77.9352 44.0226 78.4265 43.5375C78.9179 43.0537 79.225 42.3267 79.349 41.3566C79.3892 40.9731 79.3992 40.6584 79.3791 40.414C79.3315 39.86 79.1197 39.4552 78.7424 39.2007C78.3676 38.9438 77.7798 38.8485 76.9776 38.915L76.005 38.9952L75.303 44.46L76.2807 44.3798Z" fill="white"/>
<path d="M91.1877 48.0729C89.997 48.1707 88.8915 48.0128 87.8687 47.6017C86.8459 47.1905 86.0099 46.5563 85.3619 45.6965C84.7164 44.8379 84.3453 43.8201 84.2488 42.6432C84.205 42.1293 84.2238 41.5903 84.304 41.0288C84.497 39.4921 84.9908 38.1184 85.783 36.9076C86.5752 35.6943 87.6092 34.7191 88.8864 33.9796C90.1624 33.2414 91.59 32.8064 93.1681 32.6761C94.414 32.5733 95.5445 32.725 96.5573 33.1323C97.5726 33.5372 98.3948 34.1676 99.024 35.0225C99.652 35.8748 100.013 36.89 100.107 38.0657C100.15 38.5909 100.133 39.1487 100.057 39.7403C99.8588 41.2582 99.3612 42.6256 98.5627 43.8414C97.7631 45.0547 96.729 46.0311 95.4593 46.7694C94.1884 47.5089 92.7645 47.9426 91.1877 48.0729ZM91.8044 43.3601C92.6366 43.2937 93.3548 42.9716 93.9602 42.3925C94.5681 41.8109 94.9329 41.0626 95.0532 40.1464C95.0896 39.7691 95.0983 39.4545 95.0783 39.2038C94.9705 37.8802 94.137 37.2824 92.5765 37.4089C91.7304 37.4791 90.9997 37.8038 90.3855 38.3816C89.7739 38.9607 89.4141 39.7052 89.3076 40.6177C89.2537 40.9962 89.2399 41.3446 89.2675 41.6655C89.3176 42.291 89.5445 42.7472 89.9493 43.0342C90.3529 43.3225 90.9721 43.4303 91.8044 43.3601Z" fill="white"/>
<path d="M10.3619 54.6949C9.06087 54.8014 7.89019 54.6673 6.84986 54.2938C5.80828 53.9203 4.97476 53.3199 4.34931 52.4939C3.72386 51.6666 3.36288 50.6664 3.26637 49.4907C3.21874 48.8954 3.23754 48.2875 3.32653 47.6645C3.62986 45.2317 4.56114 43.2826 6.11787 41.8186C7.67711 40.3509 9.7515 39.5099 12.3398 39.298C13.4039 39.2115 14.3339 39.2266 15.1286 39.3457C15.927 39.4597 16.6465 39.6929 17.2882 40.0451L16.6753 44.7742C16.1263 44.3731 15.4896 44.1061 14.7676 43.972C14.0457 43.8329 13.1883 43.8053 12.1956 43.8867C11.1139 43.9745 10.2316 44.3091 9.54719 44.8895C8.86408 45.4685 8.45798 46.2569 8.32888 47.2547C8.27624 47.6094 8.26245 47.9378 8.28752 48.2423C8.34392 48.9355 8.62468 49.4318 9.12855 49.7339C9.63618 50.0335 10.3945 50.1412 11.4047 50.0585C12.3711 49.9783 13.2548 49.7991 14.0544 49.5196C14.8541 49.2363 15.63 48.839 16.3808 48.3288L15.7866 53.0404C14.2613 53.9717 12.4526 54.5232 10.3619 54.6949ZM17.925 39.1564L28.6792 38.2752L28.1465 42.4767L22.3131 42.9555L22.1477 44.244L26.2789 43.9055L25.7926 47.6846L21.6626 48.023L21.4972 49.3127L27.3305 48.8339L26.7978 53.0366L16.0436 53.9178L17.925 39.1564ZM29.0514 38.2452L36.0292 37.6724C37.5358 37.5495 38.7553 37.8115 39.6853 38.4595C40.6166 39.1075 41.133 40.0551 41.2346 41.3022C41.2697 41.7271 41.2559 42.1458 41.1944 42.5556C41.0465 43.6561 40.7094 44.6075 40.1842 45.4084C39.6578 46.2106 38.9759 46.8611 38.1399 47.3612L39.8132 51.9687L34.8522 52.3761L33.4471 48.5018L32.5096 48.5782L32.0095 52.6092L27.1688 53.0053L29.0514 38.2452ZM34.0989 44.7491C35.3598 44.6463 36.0555 44.0509 36.1871 42.9655C36.2184 42.7963 36.2272 42.6421 36.2159 42.5042C36.1532 41.7434 35.5817 41.4088 34.5013 41.4965L33.4008 41.5867L32.9997 44.8393L34.0989 44.7491ZM42.2523 37.1622L49.2313 36.5907C50.7379 36.4666 51.9562 36.7298 52.8875 37.3778C53.8175 38.0258 54.3339 38.9734 54.4367 40.2205C54.4705 40.6454 54.458 41.0628 54.3966 41.4727C54.2487 42.5732 53.9115 43.5245 53.3851 44.3267C52.8586 45.1276 52.178 45.7794 51.3408 46.2795L53.0153 50.887L48.0531 51.2944L46.6493 47.4188L45.7117 47.4966L45.2104 51.5263L40.371 51.9236L42.2523 37.1622ZM47.301 43.6674C48.5607 43.5634 49.2564 42.9693 49.3892 41.8838C49.4193 41.7146 49.4293 41.5604 49.418 41.4225C49.3554 40.6617 48.7838 40.3258 47.7021 40.4148L46.6029 40.5051L46.2006 43.7576L47.301 43.6674ZM60.8504 35.6381L65.503 35.257L69.4337 49.5409L64.4928 49.9457L63.8698 47.4464L59.5518 47.7999L58.3047 50.4533L53.157 50.8757L60.8504 35.6381ZM63.2594 43.8642L62.6365 40.5477L61.101 44.0409L63.2594 43.8642ZM71.6861 34.7507L77.0832 34.3082C78.4545 34.1954 79.6753 34.337 80.7457 34.7319C81.8148 35.1242 82.6647 35.7296 83.2964 36.5481C83.9281 37.3678 84.2903 38.3429 84.3831 39.4748C84.4244 39.9749 84.4157 40.4637 84.3555 40.9412C84.0597 43.4305 83.151 45.352 81.6293 46.7044C80.1115 48.0543 78.0233 48.8377 75.3686 49.0545L69.8034 49.5108L71.6861 34.7507ZM76.2811 44.3831C77.2211 44.3066 77.9355 44.0246 78.4269 43.5396C78.917 43.0532 79.2266 42.3237 79.3544 41.3511C79.3945 40.9738 79.4045 40.6592 79.3845 40.4098C79.3381 39.8558 79.1263 39.4509 78.749 39.1965C78.3742 38.9421 77.7851 38.8468 76.9805 38.9132L76.0078 38.9922L75.3034 44.4633L76.2811 44.3831ZM91.1878 48.0694C89.9983 48.1671 88.8916 48.0104 87.8688 47.6018C86.8448 47.192 86.01 46.559 85.3607 45.7004C84.7115 44.8381 84.3392 43.8203 84.2427 42.6434C84.2013 42.1307 84.2201 41.5918 84.2991 41.0277C84.4971 39.4936 84.991 38.1198 85.7831 36.9053C86.574 35.6907 87.6081 34.7156 88.8841 33.9786C90.16 33.2378 91.5877 32.8029 93.1657 32.6738C94.4116 32.571 95.5421 32.7239 96.5549 33.13C97.5702 33.5336 98.3924 34.1628 99.0204 35.0201C99.6483 35.8725 100.011 36.8877 100.107 38.0634C100.15 38.5873 100.132 39.1439 100.056 39.7355C99.8601 41.2584 99.3638 42.6271 98.5654 43.8429C97.7669 45.0574 96.7316 46.0338 95.4582 46.7708C94.1885 47.5066 92.7659 47.9403 91.1878 48.0694ZM91.807 43.3603C92.638 43.2926 93.3562 42.9705 93.9616 42.3927C94.5708 41.8124 94.9342 41.0641 95.0533 40.1453C95.0934 39.7681 95.1035 39.4547 95.0834 39.204C94.9744 37.8767 94.1383 37.2775 92.5741 37.4054C91.7293 37.4743 90.9986 37.7989 90.3831 38.3805C89.7702 38.9584 89.4105 39.7041 89.3014 40.6166C89.2513 40.9989 89.2388 41.3486 89.2651 41.6657C89.3165 42.2912 89.5433 42.7474 89.9482 43.0332C90.3556 43.3202 90.976 43.4292 91.807 43.3603Z" stroke="#001247" stroke-width="1.04144"/>
<mask id="mask18_1_4" style="mask-type:luminance" maskUnits="userSpaceOnUse" x="29" y="51" width="45" height="17">
<path d="M29.5202 51.3395H73.4798V67.704H29.5202V51.3395Z" fill="white"/>
</mask>
<g mask="url(#mask18_1_4)">
<mask id="mask19_1_4" style="mask-type:luminance" maskUnits="userSpaceOnUse" x="28" y="51" width="47" height="17">
<path d="M28.8095 55.2415L73.3293 51.6066L74.342 64.0078L29.8223 67.6427L28.8095 55.2415Z" fill="white"/>
</mask>
<g mask="url(#mask19_1_4)">
<mask id="mask20_1_4" style="mask-type:luminance" maskUnits="userSpaceOnUse" x="29" y="51" width="45" height="17">
<path d="M30.2773 55.1211L73.3005 51.609L72.8468 64.1305L29.8223 67.6426L30.2773 55.1211Z" fill="white"/>
</mask>
<g mask="url(#mask20_1_4)">
<path d="M28.8095 55.2413L73.2817 51.6102L74.2931 64.0127L29.8223 67.6425L28.8095 55.2413Z" fill="#ECC200"/>
</g>
</g>
</g>
<path d="M46.8059 54.3294L48.8264 54.1539L50.6513 55.9287L48.5757 56.1092L47.9139 55.3522L47.3925 56.2095L45.3168 56.39L46.8059 54.3294ZM48.6609 63.8854C47.9452 63.9455 47.2847 63.8478 46.6805 63.5896C46.0751 63.3326 45.58 62.9428 45.1965 62.4214C44.8155 61.8975 44.5949 61.2783 44.5347 60.5663C44.4745 59.8481 44.5873 59.1976 44.8706 58.616C45.1576 58.0345 45.5775 57.5657 46.129 57.2072C46.6805 56.8462 47.3135 56.6357 48.0292 56.5755C48.7374 56.5153 49.3941 56.6156 49.9995 56.8763C50.6037 57.1345 51.0975 57.5256 51.4786 58.0495C51.8596 58.5747 52.0802 59.1964 52.1404 59.9146C52.2005 60.6265 52.0877 61.2733 51.8045 61.8548C51.5199 62.4339 51.1025 62.9014 50.551 63.2587C49.9995 63.6171 49.3691 63.8252 48.6609 63.8854ZM48.4654 61.6543C48.8665 61.6217 49.1848 61.4663 49.423 61.188C49.6636 60.9073 49.7652 60.5513 49.7288 60.1201C49.6912 59.6827 49.5308 59.3505 49.2475 59.1224C48.9667 58.8918 48.6258 58.794 48.2247 58.8266C47.8161 58.8642 47.4927 59.0196 47.2521 59.2929C47.0139 59.5674 46.9137 59.9233 46.9513 60.3608C46.9876 60.792 47.148 61.1254 47.4326 61.3585C47.7196 61.5891 48.0643 61.6881 48.4654 61.6543Z" fill="#001247"/>
<path d="M52.3447 56.3562L54.7212 56.1506L55.1523 61.1643L57.7695 60.9386L57.9399 62.9341L52.9463 63.3652L52.3447 56.3562Z" fill="#001247"/>
<path d="M57.6383 55.901L62.8324 55.4548L63.0029 57.4502L60.1852 57.6909L60.2353 58.3025L62.2308 58.1321L62.3862 59.9269L60.3908 60.0974L60.4459 60.7091L63.2636 60.4684L63.434 62.4638L58.2399 62.91L57.6383 55.901Z" fill="#001247"/>
<path d="M63.333 55.4109L65.7094 55.2053L66.3111 62.2144L63.9346 62.4199L63.333 55.4109Z" fill="#001247"/>
<path d="M36.8923 57.591L39.379 57.3805L41.1589 61.1858L42.2669 57.1298L44.7536 56.9192L42.5476 64.1689L40.3015 64.3594L36.8923 57.591Z" fill="#001247"/>
</svg>
