<?xml version="1.0" encoding="utf-8"?>
<!-- Generator: Adobe Illustrator 28.3.0, SVG Export Plug-In . SVG Version: 6.00 Build 0)  -->
<svg version="1.1" xmlns="http://www.w3.org/2000/svg" xmlns:xlink="http://www.w3.org/1999/xlink" x="0px" y="0px"
	 viewBox="0 0 492 492" style="enable-background:new 0 0 492 492;" xml:space="preserve">
<style type="text/css">
	.st0{display:none;}
	.st1{display:inline;fill:#172C52;}
	.st2{display:inline;fill:none;stroke:#000000;stroke-width:3;stroke-miterlimit:10;}
	.st3{fill:#FFFFFF;}
	.st4{fill:#33CC66;}
	.st5{fill:none;stroke:#FFFFFF;stroke-width:9.4767;stroke-linejoin:round;stroke-miterlimit:10;}
</style>
<g id="Camada_1" class="st0">
	<rect class="st1" width="492" height="492"/>
	<line class="st2" x1="-1236" y1="56.5" x2="1783" y2="56.5"/>
	<line class="st2" x1="-1236" y1="434.5" x2="1783" y2="434.5"/>
</g>
<g id="Camada_2">
	<g>
		<path class="st4" d="M405.1,57h-319c-20.7,0-37.4,16.6-37.4,37v303.8c0,20.6,16.7,37.2,37.2,37.2h319.2
			c20.5,0,37.2-16.7,37.2-37.2V94.2C442.3,73.7,425.6,57,405.1,57z M389.7,144.8l-179.6,233c-3.4,4.5-10.2,4.8-14,0.6l-93.9-103
			c-4.5-4.9-3.8-12.5,1.4-16.5l22.4-17.4c3.9-3,9.6-2.2,12.5,1.9l60.9,85.5c1.1,1.6,4.7,1.6,5.9,0l135.6-213.4
			c4.2-6,12.4-7.7,18.6-3.8l27.4,17C392.3,132,393.7,139.5,389.7,144.8z"/>
	</g>
</g>
</svg>
