<?xml version="1.0" encoding="UTF-8"?>
<svg id="Camada_2" data-name="Camada 2" xmlns="http://www.w3.org/2000/svg" viewBox="0 0 492 492">
  <defs>
    <style>
      .cls-1 {
        fill: #fff;
        stroke-width: 0px;
      }
    </style>
  </defs>
  <path class="cls-1" d="M206.42,189.65c-19.52-25.15-22.45-61.97-7.17-89.86,15.28-27.89,47.89-45.33,79.63-42.48,15.03,1.35,29.98,7.13,40.54,17.84,15.1,15.32,19.45,38.94,15.21,59.99-4.24,21.06-15.98,39.89-26.98,57.54,14.4-25.48,44.16-41.64,73.37-39.34,29.21,2.3,56.26,23.18,65.33,51,9.07,27.82-.66,60.91-23.73,79-23.03,18.1-57.87,19.63-81.82,3.98,27.42,14.95,48.81,42.81,50.78,73.96,1.97,31.15-18.61,63.72-49.03,70.78-21.61,5.01-45.3-3.18-60.69-19.12-15.43-15.94-22.78-38.75-24.82-61.49.15,34.15-21.68,68.15-53.89,79.59-32.21,11.44-72.35-2.67-87.89-33.09-10.68-20.95-9.21-47.12,2.05-67.74,11.26-20.62,31.62-35.68,52.72-44.68-30.01,16.38-71.29,5.34-90.96-22.59-19.67-27.93-16.93-68.77,4.5-95.38,9.14-11.37,21.64-20.47,35.94-23.43,16.93-3.55,34.73,1.83,49.32,11.04,14.62,9.29,26.54,22.12,37.58,34.48ZM260.34,319.29c33.34,0,60.4-26.18,60.4-58.49s-27.05-58.49-60.4-58.49-60.4,26.18-60.4,58.49,27.02,58.49,60.4,58.49Z"/>
</svg>