<?xml version="1.0" encoding="utf-8"?>
<!-- Generator: Adobe Illustrator 28.3.0, SVG Export Plug-In . SVG Version: 6.00 Build 0)  -->
<svg version="1.1" xmlns="http://www.w3.org/2000/svg" xmlns:xlink="http://www.w3.org/1999/xlink" x="0px" y="0px"
	 viewBox="0 0 492 492" style="enable-background:new 0 0 492 492;" xml:space="preserve">
<style type="text/css">
	.st0{display:none;}
	.st1{display:inline;fill:#172C52;}
	.st2{display:inline;fill:none;stroke:#000000;stroke-width:3;stroke-miterlimit:10;}
	.st3{fill:#FFFFFF;}
	.st4{fill:none;stroke:#FFFFFF;stroke-width:9.4767;stroke-linejoin:round;stroke-miterlimit:10;}
</style>
<g id="Camada_1" class="st0">
	<rect class="st1" width="492" height="492"/>
	<line class="st2" x1="-1236" y1="56.5" x2="1783" y2="56.5"/>
	<line class="st2" x1="-1236" y1="434.5" x2="1783" y2="434.5"/>
</g>
<g id="Camada_2">
	<g>
		<path class="st3" d="M442.3,246c0-104.4-84.6-189-189-189H86.1c-20.7,0-37.4,16.6-37.4,37v152c0,104.4,84.6,189,189,189h15.6
			C357.7,435,442.3,350.4,442.3,246L442.3,246z M347.9,164.5L201.7,354.1c-2.8,3.7-8.3,3.9-11.4,0.5l-76.4-83.8
			c-3.6-4-3.1-10.1,1.1-13.4l18.2-14.2c3.2-2.5,7.8-1.8,10.1,1.6l49.5,69.6c0.9,1.3,3.9,1.3,4.8,0l110.3-173.6
			c3.4-4.9,10.1-6.3,15.1-3.1l22.3,13.9C350,154.1,351.1,160.2,347.9,164.5z"/>
	</g>
</g>
</svg>
