<?xml version="1.0" encoding="utf-8"?>
<!-- Generator: Adobe Illustrator 28.3.0, SVG Export Plug-In . SVG Version: 6.00 Build 0)  -->
<svg version="1.1" xmlns="http://www.w3.org/2000/svg" xmlns:xlink="http://www.w3.org/1999/xlink" x="0px" y="0px"
	 viewBox="0 0 492 492" style="enable-background:new 0 0 492 492;" xml:space="preserve">
<style type="text/css">
	.st0{display:none;}
	.st1{display:inline;fill:#172C52;}
	.st2{display:inline;fill:none;stroke:#000000;stroke-width:3;stroke-miterlimit:10;}
	.st3{fill:#FFFFFF;}
	.st4{fill:#33CC66;}
	.st5{fill:none;stroke:#FFFFFF;stroke-width:9.4767;stroke-linejoin:round;stroke-miterlimit:10;}
</style>
<g id="Camada_1" class="st0">
	<rect class="st1" width="492" height="492"/>
	<line class="st2" x1="-1236" y1="56.5" x2="1783" y2="56.5"/>
	<line class="st2" x1="-1236" y1="434.5" x2="1783" y2="434.5"/>
</g>
<g id="Camada_2">
	<g>
		<path class="st4" d="M49,57v3c27.1,0.3,49,26.8,49,63c0,21.2-7.5,40.1-19.2,52.2c-19,19.6-30.1,45.5-30.1,72.8v8
			c0,98.8,80.1,179,179,179h35.7c98.8,0,179-80.1,179-179V57H49z M398.9,141.8L232.8,377.5c-3.2,4.6-9.4,4.9-13,0.6L133,273.8
			c-4.1-4.9-3.5-12.6,1.3-16.7l20.7-17.6c3.6-3,8.9-2.2,11.5,1.9l56.3,86.5c1.1,1.6,4.4,1.6,5.4,0L353.6,112
			c3.9-6.1,11.4-7.8,17.2-3.9l25.3,17.2C401.3,128.9,402.6,136.5,398.9,141.8z"/>
	</g>
</g>
</svg>
