<?xml version="1.0" encoding="UTF-8"?>
<svg id="Camada_2" data-name="Camada 2" xmlns="http://www.w3.org/2000/svg" viewBox="0 0 492 492">
  <defs>
    <style>
      .cls-1 {
        fill: #fff;
        stroke-width: 0px;
      }
    </style>
  </defs>
  <g id="Refazer">
    <path class="cls-1" d="M404.92,57H85.95c-20.55,0-37.22,16.66-37.22,37.22v303.57c0,20.55,16.66,37.22,37.22,37.22h318.97c20.68,0,37.4-16.59,37.4-37.02V94.02c0-20.47-16.68-37.02-37.4-37.02ZM336.56,303.99c-17.96,17.89-43.72,26.38-69.09,27.43-13.95.55-34.96-5.69-55.06-12.66v28.88c0,6.66-7.64,10.48-12.98,6.43l-56.47-42.67c-4.25-3.23-4.25-9.66,0-12.9l56.47-42.71c5.34-4.01,12.98-.23,12.98,6.47v32.38c18.55,2.18,37.64,7.6,50.15,6.12,23.65-2.81,47.54-16.8,54.91-39.44,6.82-21.08-2.61-45.24-19.48-59.62-16.87-14.42-39.83-20.07-62-20.07-19.21.04-38.11,3.97-56.82,8.42-4.99,1.17-10.09-1.87-11.38-6.86-3.12-12.12-4.29-23.81-3.7-35.3.23-4.56,3.37-8.42,7.75-9.71,32.38-9.51,67.34-11.73,99.92-2.57,34.96,9.82,66.79,33.86,81.29,67.14,14.54,33.32,9.31,75.6-16.48,101.24Z"/>
  </g>
</svg>